<svg width="15" height="15" viewBox="0 0 15 15" fill="none" xmlns="http://www.w3.org/2000/svg">
<path d="M11.25 3H15V4.5H13.5V14.25C13.5 14.46 13.4275 14.6375 13.2825 14.7825C13.1375 14.9275 12.96 15 12.75 15H2.25C2.04 15 1.8625 14.9275 1.7175 14.7825C1.5725 14.6375 1.5 14.46 1.5 14.25V4.5H0V3H3.75V0.75C3.75 0.54 3.8225 0.3625 3.9675 0.217501C4.1125 0.0725002 4.29 0 4.5 0H10.5C10.71 0 10.8875 0.0725002 11.0325 0.217501C11.1775 0.3625 11.25 0.54 11.25 0.75V3ZM12 4.5H3V13.5H12V4.5ZM5.25 6.75H6.75V11.25H5.25V6.75ZM8.25 6.75H9.75V11.25H8.25V6.75ZM5.25 1.5V3H9.75V1.5H5.25Z" fill="#DC2626"/>
</svg>
