<svg width="20" height="21" viewBox="0 0 20 21" fill="none" xmlns="http://www.w3.org/2000/svg">
<path d="M17.28 15H19.2V17H0V15H1.92V8C1.92 6.54667 2.272 5.2 2.976 3.96C3.6544 2.76 4.5696 1.80667 5.7216 1.1C6.912 0.366667 8.2048 0 9.6 0C10.9952 0 12.288 0.366667 13.4784 1.1C14.6304 1.80667 15.5456 2.76 16.224 3.96C16.928 5.2 17.28 6.54667 17.28 8V15ZM15.36 15V8C15.36 6.92 15.0976 5.91333 14.5728 4.98C14.0608 4.07333 13.3696 3.35333 12.4992 2.82C11.6032 2.27333 10.6368 2 9.6 2C8.5632 2 7.5968 2.27333 6.7008 2.82C5.8304 3.35333 5.1392 4.07333 4.6272 4.98C4.1024 5.91333 3.84 6.92 3.84 8V15H15.36ZM6.72 19H12.48V21H6.72V19Z" fill="#374151"/>
</svg>
