<svg width="11" height="14" viewBox="0 0 11 14" fill="none" xmlns="http://www.w3.org/2000/svg">
<path d="M0 14C0 13.0311 0.244292 12.1333 0.732875 11.3067C1.20369 10.5067 1.83885 9.87111 2.63835 9.4C3.4645 8.91111 4.36172 8.66667 5.33 8.66667C6.29828 8.66667 7.1955 8.91111 8.02165 9.4C8.82115 9.87111 9.45631 10.5067 9.92712 11.3067C10.4157 12.1333 10.66 13.0311 10.66 14H9.3275C9.3275 13.28 9.14539 12.6089 8.78117 11.9867C8.42584 11.3822 7.94614 10.9022 7.34207 10.5467C6.72024 10.1822 6.04955 10 5.33 10C4.61045 10 3.93976 10.1822 3.31792 10.5467C2.71386 10.9022 2.23416 11.3822 1.87883 11.9867C1.51461 12.6089 1.3325 13.28 1.3325 14H0ZM5.33 8C4.60157 8 3.93088 7.81778 3.31792 7.45333C2.71386 7.09778 2.23416 6.61778 1.87883 6.01333C1.51461 5.4 1.3325 4.72889 1.3325 4C1.3325 3.27111 1.51461 2.6 1.87883 1.98667C2.23416 1.38222 2.71386 0.902222 3.31792 0.546666C3.93088 0.182221 4.60157 0 5.33 0C6.05843 0 6.72913 0.182221 7.34207 0.546666C7.94614 0.902222 8.42584 1.38222 8.78117 1.98667C9.14539 2.6 9.3275 3.27111 9.3275 4C9.3275 4.72889 9.14539 5.4 8.78117 6.01333C8.42584 6.61778 7.94614 7.09778 7.34207 7.45333C6.72913 7.81778 6.05843 8 5.33 8ZM5.33 6.66667C5.8097 6.66667 6.25387 6.54667 6.6625 6.30667C7.07113 6.06667 7.39538 5.74222 7.63523 5.33333C7.87508 4.92444 7.995 4.48 7.995 4C7.995 3.52 7.87508 3.07555 7.63523 2.66667C7.39538 2.25778 7.07113 1.93333 6.6625 1.69333C6.25387 1.45333 5.8097 1.33333 5.33 1.33333C4.8503 1.33333 4.40613 1.45333 3.9975 1.69333C3.58887 1.93333 3.26463 2.25778 3.02478 2.66667C2.78492 3.07555 2.665 3.52 2.665 4C2.665 4.48 2.78492 4.92444 3.02478 5.33333C3.26463 5.74222 3.58887 6.06667 3.9975 6.30667C4.40613 6.54667 4.8503 6.66667 5.33 6.66667Z" fill="#2564EB"/>
</svg>
